<svg version="1.0" xmlns="http://www.w3.org/2000/svg" xmlns:xlink="http://www.w3.org/1999/xlink"
	 viewBox="0 0 100 100" enable-background="new 0 0 100 100" xml:space="preserve">
	
<svg xmlns="http://www.w3.org/2000/svg" xmlns:xlink="http://www.w3.org/1999/xlink" version="1.1" width="100" height="100" viewBox="0 0 2000 2000" x="0" y="0" shape-rendering="crispEdges"><defs/><rect x="0" y="0" width="2000" height="2000" fill="#ffffff"/><svg viewBox="0 0 3.4 3.4" x="776" y="200" width="64" height="64" shape-rendering="auto"><circle fill="#000000" cx="1.7" cy="1.7" r="1.7"/></svg><svg viewBox="0 0 3.4 3.4" x="1096" y="200" width="64" height="64" shape-rendering="auto"><circle fill="#000000" cx="1.7" cy="1.7" r="1.7"/></svg><svg viewBox="0 0 3.4 3.4" x="1224" y="200" width="64" height="64" shape-rendering="auto"><circle fill="#000000" cx="1.7" cy="1.7" r="1.7"/></svg><svg viewBox="0 0 3.4 3.4" x="712" y="264" width="64" height="64" shape-rendering="auto"><circle fill="#000000" cx="1.7" cy="1.7" r="1.7"/></svg><svg viewBox="0 0 3.4 3.4" x="776" y="264" width="64" height="64" shape-rendering="auto"><circle fill="#000000" cx="1.7" cy="1.7" r="1.7"/></svg><svg viewBox="0 0 3.4 3.4" x="904" y="264" width="64" height="64" shape-rendering="auto"><circle fill="#000000" cx="1.7" cy="1.7" r="1.7"/></svg><svg viewBox="0 0 3.4 3.4" x="968" y="264" width="64" height="64" shape-rendering="auto"><circle fill="#000000" cx="1.7" cy="1.7" r="1.7"/></svg><svg viewBox="0 0 3.4 3.4" x="1032" y="264" width="64" height="64" shape-rendering="auto"><circle fill="#000000" cx="1.7" cy="1.7" r="1.7"/></svg><svg viewBox="0 0 3.4 3.4" x="1096" y="264" width="64" height="64" shape-rendering="auto"><circle fill="#000000" cx="1.7" cy="1.7" r="1.7"/></svg><svg viewBox="0 0 3.4 3.4" x="776" y="328" width="64" height="64" shape-rendering="auto"><circle fill="#000000" cx="1.7" cy="1.7" r="1.7"/></svg><svg viewBox="0 0 3.4 3.4" x="840" y="328" width="64" height="64" shape-rendering="auto"><circle fill="#000000" cx="1.7" cy="1.7" r="1.7"/></svg><svg viewBox="0 0 3.4 3.4" x="904" y="328" width="64" height="64" shape-rendering="auto"><circle fill="#000000" cx="1.7" cy="1.7" r="1.7"/></svg><svg viewBox="0 0 3.4 3.4" x="712" y="392" width="64" height="64" shape-rendering="auto"><circle fill="#000000" cx="1.7" cy="1.7" r="1.7"/></svg><svg viewBox="0 0 3.4 3.4" x="776" y="392" width="64" height="64" shape-rendering="auto"><circle fill="#000000" cx="1.7" cy="1.7" r="1.7"/></svg><svg viewBox="0 0 3.4 3.4" x="904" y="392" width="64" height="64" shape-rendering="auto"><circle fill="#000000" cx="1.7" cy="1.7" r="1.7"/></svg><svg viewBox="0 0 3.4 3.4" x="1032" y="392" width="64" height="64" shape-rendering="auto"><circle fill="#000000" cx="1.7" cy="1.7" r="1.7"/></svg><svg viewBox="0 0 3.4 3.4" x="1160" y="392" width="64" height="64" shape-rendering="auto"><circle fill="#000000" cx="1.7" cy="1.7" r="1.7"/></svg><svg viewBox="0 0 3.4 3.4" x="1224" y="392" width="64" height="64" shape-rendering="auto"><circle fill="#000000" cx="1.7" cy="1.7" r="1.7"/></svg><svg viewBox="0 0 3.4 3.4" x="840" y="456" width="64" height="64" shape-rendering="auto"><circle fill="#000000" cx="1.7" cy="1.7" r="1.7"/></svg><svg viewBox="0 0 3.4 3.4" x="968" y="456" width="64" height="64" shape-rendering="auto"><circle fill="#000000" cx="1.7" cy="1.7" r="1.7"/></svg><svg viewBox="0 0 3.4 3.4" x="1160" y="456" width="64" height="64" shape-rendering="auto"><circle fill="#000000" cx="1.7" cy="1.7" r="1.7"/></svg><svg viewBox="0 0 3.4 3.4" x="1224" y="456" width="64" height="64" shape-rendering="auto"><circle fill="#000000" cx="1.7" cy="1.7" r="1.7"/></svg><svg viewBox="0 0 3.4 3.4" x="712" y="520" width="64" height="64" shape-rendering="auto"><circle fill="#000000" cx="1.7" cy="1.7" r="1.7"/></svg><svg viewBox="0 0 3.4 3.4" x="840" y="520" width="64" height="64" shape-rendering="auto"><circle fill="#000000" cx="1.7" cy="1.7" r="1.7"/></svg><svg viewBox="0 0 3.4 3.4" x="1032" y="520" width="64" height="64" shape-rendering="auto"><circle fill="#000000" cx="1.7" cy="1.7" r="1.7"/></svg><svg viewBox="0 0 3.4 3.4" x="1096" y="520" width="64" height="64" shape-rendering="auto"><circle fill="#000000" cx="1.7" cy="1.7" r="1.7"/></svg><svg viewBox="0 0 3.4 3.4" x="1160" y="520" width="64" height="64" shape-rendering="auto"><circle fill="#000000" cx="1.7" cy="1.7" r="1.7"/></svg><svg viewBox="0 0 3.4 3.4" x="712" y="584" width="64" height="64" shape-rendering="auto"><circle fill="#000000" cx="1.7" cy="1.7" r="1.7"/></svg><svg viewBox="0 0 3.4 3.4" x="840" y="584" width="64" height="64" shape-rendering="auto"><circle fill="#000000" cx="1.7" cy="1.7" r="1.7"/></svg><svg viewBox="0 0 3.4 3.4" x="968" y="584" width="64" height="64" shape-rendering="auto"><circle fill="#000000" cx="1.7" cy="1.7" r="1.7"/></svg><svg viewBox="0 0 3.4 3.4" x="1096" y="584" width="64" height="64" shape-rendering="auto"><circle fill="#000000" cx="1.7" cy="1.7" r="1.7"/></svg><svg viewBox="0 0 3.4 3.4" x="1224" y="584" width="64" height="64" shape-rendering="auto"><circle fill="#000000" cx="1.7" cy="1.7" r="1.7"/></svg><svg viewBox="0 0 3.4 3.4" x="968" y="648" width="64" height="64" shape-rendering="auto"><circle fill="#000000" cx="1.7" cy="1.7" r="1.7"/></svg><svg viewBox="0 0 3.4 3.4" x="1224" y="648" width="64" height="64" shape-rendering="auto"><circle fill="#000000" cx="1.7" cy="1.7" r="1.7"/></svg><svg viewBox="0 0 3.4 3.4" x="200" y="712" width="64" height="64" shape-rendering="auto"><circle fill="#000000" cx="1.7" cy="1.7" r="1.7"/></svg><svg viewBox="0 0 3.4 3.4" x="264" y="712" width="64" height="64" shape-rendering="auto"><circle fill="#000000" cx="1.7" cy="1.7" r="1.7"/></svg><svg viewBox="0 0 3.4 3.4" x="328" y="712" width="64" height="64" shape-rendering="auto"><circle fill="#000000" cx="1.7" cy="1.7" r="1.7"/></svg><svg viewBox="0 0 3.4 3.4" x="392" y="712" width="64" height="64" shape-rendering="auto"><circle fill="#000000" cx="1.7" cy="1.7" r="1.7"/></svg><svg viewBox="0 0 3.4 3.4" x="456" y="712" width="64" height="64" shape-rendering="auto"><circle fill="#000000" cx="1.7" cy="1.7" r="1.7"/></svg><svg viewBox="0 0 3.4 3.4" x="584" y="712" width="64" height="64" shape-rendering="auto"><circle fill="#000000" cx="1.7" cy="1.7" r="1.7"/></svg><svg viewBox="0 0 3.4 3.4" x="648" y="712" width="64" height="64" shape-rendering="auto"><circle fill="#000000" cx="1.7" cy="1.7" r="1.7"/></svg><svg viewBox="0 0 3.4 3.4" x="712" y="712" width="64" height="64" shape-rendering="auto"><circle fill="#000000" cx="1.7" cy="1.7" r="1.7"/></svg><svg viewBox="0 0 3.4 3.4" x="776" y="712" width="64" height="64" shape-rendering="auto"><circle fill="#000000" cx="1.7" cy="1.7" r="1.7"/></svg><svg viewBox="0 0 3.4 3.4" x="840" y="712" width="64" height="64" shape-rendering="auto"><circle fill="#000000" cx="1.7" cy="1.7" r="1.7"/></svg><svg viewBox="0 0 3.4 3.4" x="968" y="712" width="64" height="64" shape-rendering="auto"><circle fill="#000000" cx="1.7" cy="1.7" r="1.7"/></svg><svg viewBox="0 0 3.4 3.4" x="1032" y="712" width="64" height="64" shape-rendering="auto"><circle fill="#000000" cx="1.7" cy="1.7" r="1.7"/></svg><svg viewBox="0 0 3.4 3.4" x="1096" y="712" width="64" height="64" shape-rendering="auto"><circle fill="#000000" cx="1.7" cy="1.7" r="1.7"/></svg><svg viewBox="0 0 3.4 3.4" x="1160" y="712" width="64" height="64" shape-rendering="auto"><circle fill="#000000" cx="1.7" cy="1.7" r="1.7"/></svg><svg viewBox="0 0 3.4 3.4" x="1288" y="712" width="64" height="64" shape-rendering="auto"><circle fill="#000000" cx="1.7" cy="1.7" r="1.7"/></svg><svg viewBox="0 0 3.4 3.4" x="1416" y="712" width="64" height="64" shape-rendering="auto"><circle fill="#000000" cx="1.7" cy="1.7" r="1.7"/></svg><svg viewBox="0 0 3.4 3.4" x="1544" y="712" width="64" height="64" shape-rendering="auto"><circle fill="#000000" cx="1.7" cy="1.7" r="1.7"/></svg><svg viewBox="0 0 3.4 3.4" x="1672" y="712" width="64" height="64" shape-rendering="auto"><circle fill="#000000" cx="1.7" cy="1.7" r="1.7"/></svg><svg viewBox="0 0 3.4 3.4" x="328" y="776" width="64" height="64" shape-rendering="auto"><circle fill="#000000" cx="1.7" cy="1.7" r="1.7"/></svg><svg viewBox="0 0 3.4 3.4" x="392" y="776" width="64" height="64" shape-rendering="auto"><circle fill="#000000" cx="1.7" cy="1.7" r="1.7"/></svg><svg viewBox="0 0 3.4 3.4" x="648" y="776" width="64" height="64" shape-rendering="auto"><circle fill="#000000" cx="1.7" cy="1.7" r="1.7"/></svg><svg viewBox="0 0 3.4 3.4" x="712" y="776" width="64" height="64" shape-rendering="auto"><circle fill="#000000" cx="1.7" cy="1.7" r="1.7"/></svg><svg viewBox="0 0 3.4 3.4" x="776" y="776" width="64" height="64" shape-rendering="auto"><circle fill="#000000" cx="1.7" cy="1.7" r="1.7"/></svg><svg viewBox="0 0 3.4 3.4" x="1096" y="776" width="64" height="64" shape-rendering="auto"><circle fill="#000000" cx="1.7" cy="1.7" r="1.7"/></svg><svg viewBox="0 0 3.4 3.4" x="1160" y="776" width="64" height="64" shape-rendering="auto"><circle fill="#000000" cx="1.7" cy="1.7" r="1.7"/></svg><svg viewBox="0 0 3.4 3.4" x="1224" y="776" width="64" height="64" shape-rendering="auto"><circle fill="#000000" cx="1.7" cy="1.7" r="1.7"/></svg><svg viewBox="0 0 3.4 3.4" x="1288" y="776" width="64" height="64" shape-rendering="auto"><circle fill="#000000" cx="1.7" cy="1.7" r="1.7"/></svg><svg viewBox="0 0 3.4 3.4" x="1416" y="776" width="64" height="64" shape-rendering="auto"><circle fill="#000000" cx="1.7" cy="1.7" r="1.7"/></svg><svg viewBox="0 0 3.4 3.4" x="1480" y="776" width="64" height="64" shape-rendering="auto"><circle fill="#000000" cx="1.7" cy="1.7" r="1.7"/></svg><svg viewBox="0 0 3.4 3.4" x="1736" y="776" width="64" height="64" shape-rendering="auto"><circle fill="#000000" cx="1.7" cy="1.7" r="1.7"/></svg><svg viewBox="0 0 3.4 3.4" x="264" y="840" width="64" height="64" shape-rendering="auto"><circle fill="#000000" cx="1.7" cy="1.7" r="1.7"/></svg><svg viewBox="0 0 3.4 3.4" x="328" y="840" width="64" height="64" shape-rendering="auto"><circle fill="#000000" cx="1.7" cy="1.7" r="1.7"/></svg><svg viewBox="0 0 3.4 3.4" x="456" y="840" width="64" height="64" shape-rendering="auto"><circle fill="#000000" cx="1.7" cy="1.7" r="1.7"/></svg><svg viewBox="0 0 3.4 3.4" x="584" y="840" width="64" height="64" shape-rendering="auto"><circle fill="#000000" cx="1.7" cy="1.7" r="1.7"/></svg><svg viewBox="0 0 3.4 3.4" x="648" y="840" width="64" height="64" shape-rendering="auto"><circle fill="#000000" cx="1.7" cy="1.7" r="1.7"/></svg><svg viewBox="0 0 3.4 3.4" x="776" y="840" width="64" height="64" shape-rendering="auto"><circle fill="#000000" cx="1.7" cy="1.7" r="1.7"/></svg><svg viewBox="0 0 3.4 3.4" x="904" y="840" width="64" height="64" shape-rendering="auto"><circle fill="#000000" cx="1.7" cy="1.7" r="1.7"/></svg><svg viewBox="0 0 3.4 3.4" x="968" y="840" width="64" height="64" shape-rendering="auto"><circle fill="#000000" cx="1.7" cy="1.7" r="1.7"/></svg><svg viewBox="0 0 3.4 3.4" x="1032" y="840" width="64" height="64" shape-rendering="auto"><circle fill="#000000" cx="1.7" cy="1.7" r="1.7"/></svg><svg viewBox="0 0 3.4 3.4" x="1096" y="840" width="64" height="64" shape-rendering="auto"><circle fill="#000000" cx="1.7" cy="1.7" r="1.7"/></svg><svg viewBox="0 0 3.4 3.4" x="1160" y="840" width="64" height="64" shape-rendering="auto"><circle fill="#000000" cx="1.7" cy="1.7" r="1.7"/></svg><svg viewBox="0 0 3.4 3.4" x="1288" y="840" width="64" height="64" shape-rendering="auto"><circle fill="#000000" cx="1.7" cy="1.7" r="1.7"/></svg><svg viewBox="0 0 3.4 3.4" x="1352" y="840" width="64" height="64" shape-rendering="auto"><circle fill="#000000" cx="1.7" cy="1.7" r="1.7"/></svg><svg viewBox="0 0 3.4 3.4" x="1480" y="840" width="64" height="64" shape-rendering="auto"><circle fill="#000000" cx="1.7" cy="1.7" r="1.7"/></svg><svg viewBox="0 0 3.4 3.4" x="1608" y="840" width="64" height="64" shape-rendering="auto"><circle fill="#000000" cx="1.7" cy="1.7" r="1.7"/></svg><svg viewBox="0 0 3.4 3.4" x="200" y="904" width="64" height="64" shape-rendering="auto"><circle fill="#000000" cx="1.7" cy="1.7" r="1.7"/></svg><svg viewBox="0 0 3.4 3.4" x="392" y="904" width="64" height="64" shape-rendering="auto"><circle fill="#000000" cx="1.7" cy="1.7" r="1.7"/></svg><svg viewBox="0 0 3.4 3.4" x="520" y="904" width="64" height="64" shape-rendering="auto"><circle fill="#000000" cx="1.7" cy="1.7" r="1.7"/></svg><svg viewBox="0 0 3.4 3.4" x="648" y="904" width="64" height="64" shape-rendering="auto"><circle fill="#000000" cx="1.7" cy="1.7" r="1.7"/></svg><svg viewBox="0 0 3.4 3.4" x="712" y="904" width="64" height="64" shape-rendering="auto"><circle fill="#000000" cx="1.7" cy="1.7" r="1.7"/></svg><svg viewBox="0 0 3.4 3.4" x="776" y="904" width="64" height="64" shape-rendering="auto"><circle fill="#000000" cx="1.7" cy="1.7" r="1.7"/></svg><svg viewBox="0 0 3.4 3.4" x="840" y="904" width="64" height="64" shape-rendering="auto"><circle fill="#000000" cx="1.7" cy="1.7" r="1.7"/></svg><svg viewBox="0 0 3.4 3.4" x="904" y="904" width="64" height="64" shape-rendering="auto"><circle fill="#000000" cx="1.7" cy="1.7" r="1.7"/></svg><svg viewBox="0 0 3.4 3.4" x="1032" y="904" width="64" height="64" shape-rendering="auto"><circle fill="#000000" cx="1.7" cy="1.7" r="1.7"/></svg><svg viewBox="0 0 3.4 3.4" x="1224" y="904" width="64" height="64" shape-rendering="auto"><circle fill="#000000" cx="1.7" cy="1.7" r="1.7"/></svg><svg viewBox="0 0 3.4 3.4" x="1288" y="904" width="64" height="64" shape-rendering="auto"><circle fill="#000000" cx="1.7" cy="1.7" r="1.7"/></svg><svg viewBox="0 0 3.4 3.4" x="200" y="968" width="64" height="64" shape-rendering="auto"><circle fill="#000000" cx="1.7" cy="1.7" r="1.7"/></svg><svg viewBox="0 0 3.4 3.4" x="264" y="968" width="64" height="64" shape-rendering="auto"><circle fill="#000000" cx="1.7" cy="1.7" r="1.7"/></svg><svg viewBox="0 0 3.4 3.4" x="392" y="968" width="64" height="64" shape-rendering="auto"><circle fill="#000000" cx="1.7" cy="1.7" r="1.7"/></svg><svg viewBox="0 0 3.4 3.4" x="456" y="968" width="64" height="64" shape-rendering="auto"><circle fill="#000000" cx="1.7" cy="1.7" r="1.7"/></svg><svg viewBox="0 0 3.4 3.4" x="520" y="968" width="64" height="64" shape-rendering="auto"><circle fill="#000000" cx="1.7" cy="1.7" r="1.7"/></svg><svg viewBox="0 0 3.4 3.4" x="584" y="968" width="64" height="64" shape-rendering="auto"><circle fill="#000000" cx="1.7" cy="1.7" r="1.7"/></svg><svg viewBox="0 0 3.4 3.4" x="712" y="968" width="64" height="64" shape-rendering="auto"><circle fill="#000000" cx="1.7" cy="1.7" r="1.7"/></svg><svg viewBox="0 0 3.4 3.4" x="776" y="968" width="64" height="64" shape-rendering="auto"><circle fill="#000000" cx="1.7" cy="1.7" r="1.7"/></svg><svg viewBox="0 0 3.4 3.4" x="904" y="968" width="64" height="64" shape-rendering="auto"><circle fill="#000000" cx="1.7" cy="1.7" r="1.7"/></svg><svg viewBox="0 0 3.4 3.4" x="1032" y="968" width="64" height="64" shape-rendering="auto"><circle fill="#000000" cx="1.7" cy="1.7" r="1.7"/></svg><svg viewBox="0 0 3.4 3.4" x="1160" y="968" width="64" height="64" shape-rendering="auto"><circle fill="#000000" cx="1.7" cy="1.7" r="1.7"/></svg><svg viewBox="0 0 3.4 3.4" x="1352" y="968" width="64" height="64" shape-rendering="auto"><circle fill="#000000" cx="1.7" cy="1.7" r="1.7"/></svg><svg viewBox="0 0 3.4 3.4" x="1416" y="968" width="64" height="64" shape-rendering="auto"><circle fill="#000000" cx="1.7" cy="1.7" r="1.7"/></svg><svg viewBox="0 0 3.4 3.4" x="1480" y="968" width="64" height="64" shape-rendering="auto"><circle fill="#000000" cx="1.7" cy="1.7" r="1.7"/></svg><svg viewBox="0 0 3.4 3.4" x="1544" y="968" width="64" height="64" shape-rendering="auto"><circle fill="#000000" cx="1.7" cy="1.7" r="1.7"/></svg><svg viewBox="0 0 3.4 3.4" x="1672" y="968" width="64" height="64" shape-rendering="auto"><circle fill="#000000" cx="1.7" cy="1.7" r="1.7"/></svg><svg viewBox="0 0 3.4 3.4" x="1736" y="968" width="64" height="64" shape-rendering="auto"><circle fill="#000000" cx="1.7" cy="1.7" r="1.7"/></svg><svg viewBox="0 0 3.4 3.4" x="200" y="1032" width="64" height="64" shape-rendering="auto"><circle fill="#000000" cx="1.7" cy="1.7" r="1.7"/></svg><svg viewBox="0 0 3.4 3.4" x="328" y="1032" width="64" height="64" shape-rendering="auto"><circle fill="#000000" cx="1.7" cy="1.7" r="1.7"/></svg><svg viewBox="0 0 3.4 3.4" x="520" y="1032" width="64" height="64" shape-rendering="auto"><circle fill="#000000" cx="1.7" cy="1.7" r="1.7"/></svg><svg viewBox="0 0 3.4 3.4" x="648" y="1032" width="64" height="64" shape-rendering="auto"><circle fill="#000000" cx="1.7" cy="1.7" r="1.7"/></svg><svg viewBox="0 0 3.4 3.4" x="776" y="1032" width="64" height="64" shape-rendering="auto"><circle fill="#000000" cx="1.7" cy="1.7" r="1.7"/></svg><svg viewBox="0 0 3.4 3.4" x="840" y="1032" width="64" height="64" shape-rendering="auto"><circle fill="#000000" cx="1.7" cy="1.7" r="1.7"/></svg><svg viewBox="0 0 3.4 3.4" x="968" y="1032" width="64" height="64" shape-rendering="auto"><circle fill="#000000" cx="1.7" cy="1.7" r="1.7"/></svg><svg viewBox="0 0 3.4 3.4" x="1224" y="1032" width="64" height="64" shape-rendering="auto"><circle fill="#000000" cx="1.7" cy="1.7" r="1.7"/></svg><svg viewBox="0 0 3.4 3.4" x="1288" y="1032" width="64" height="64" shape-rendering="auto"><circle fill="#000000" cx="1.7" cy="1.7" r="1.7"/></svg><svg viewBox="0 0 3.4 3.4" x="1352" y="1032" width="64" height="64" shape-rendering="auto"><circle fill="#000000" cx="1.7" cy="1.7" r="1.7"/></svg><svg viewBox="0 0 3.4 3.4" x="1416" y="1032" width="64" height="64" shape-rendering="auto"><circle fill="#000000" cx="1.7" cy="1.7" r="1.7"/></svg><svg viewBox="0 0 3.4 3.4" x="1480" y="1032" width="64" height="64" shape-rendering="auto"><circle fill="#000000" cx="1.7" cy="1.7" r="1.7"/></svg><svg viewBox="0 0 3.4 3.4" x="200" y="1096" width="64" height="64" shape-rendering="auto"><circle fill="#000000" cx="1.7" cy="1.7" r="1.7"/></svg><svg viewBox="0 0 3.4 3.4" x="328" y="1096" width="64" height="64" shape-rendering="auto"><circle fill="#000000" cx="1.7" cy="1.7" r="1.7"/></svg><svg viewBox="0 0 3.4 3.4" x="520" y="1096" width="64" height="64" shape-rendering="auto"><circle fill="#000000" cx="1.7" cy="1.7" r="1.7"/></svg><svg viewBox="0 0 3.4 3.4" x="584" y="1096" width="64" height="64" shape-rendering="auto"><circle fill="#000000" cx="1.7" cy="1.7" r="1.7"/></svg><svg viewBox="0 0 3.4 3.4" x="776" y="1096" width="64" height="64" shape-rendering="auto"><circle fill="#000000" cx="1.7" cy="1.7" r="1.7"/></svg><svg viewBox="0 0 3.4 3.4" x="1032" y="1096" width="64" height="64" shape-rendering="auto"><circle fill="#000000" cx="1.7" cy="1.7" r="1.7"/></svg><svg viewBox="0 0 3.4 3.4" x="1096" y="1096" width="64" height="64" shape-rendering="auto"><circle fill="#000000" cx="1.7" cy="1.7" r="1.7"/></svg><svg viewBox="0 0 3.4 3.4" x="1288" y="1096" width="64" height="64" shape-rendering="auto"><circle fill="#000000" cx="1.7" cy="1.7" r="1.7"/></svg><svg viewBox="0 0 3.4 3.4" x="1352" y="1096" width="64" height="64" shape-rendering="auto"><circle fill="#000000" cx="1.7" cy="1.7" r="1.7"/></svg><svg viewBox="0 0 3.4 3.4" x="1480" y="1096" width="64" height="64" shape-rendering="auto"><circle fill="#000000" cx="1.7" cy="1.7" r="1.7"/></svg><svg viewBox="0 0 3.4 3.4" x="1608" y="1096" width="64" height="64" shape-rendering="auto"><circle fill="#000000" cx="1.7" cy="1.7" r="1.7"/></svg><svg viewBox="0 0 3.4 3.4" x="1672" y="1096" width="64" height="64" shape-rendering="auto"><circle fill="#000000" cx="1.7" cy="1.7" r="1.7"/></svg><svg viewBox="0 0 3.4 3.4" x="1736" y="1096" width="64" height="64" shape-rendering="auto"><circle fill="#000000" cx="1.7" cy="1.7" r="1.7"/></svg><svg viewBox="0 0 3.4 3.4" x="200" y="1160" width="64" height="64" shape-rendering="auto"><circle fill="#000000" cx="1.7" cy="1.7" r="1.7"/></svg><svg viewBox="0 0 3.4 3.4" x="328" y="1160" width="64" height="64" shape-rendering="auto"><circle fill="#000000" cx="1.7" cy="1.7" r="1.7"/></svg><svg viewBox="0 0 3.4 3.4" x="456" y="1160" width="64" height="64" shape-rendering="auto"><circle fill="#000000" cx="1.7" cy="1.7" r="1.7"/></svg><svg viewBox="0 0 3.4 3.4" x="520" y="1160" width="64" height="64" shape-rendering="auto"><circle fill="#000000" cx="1.7" cy="1.7" r="1.7"/></svg><svg viewBox="0 0 3.4 3.4" x="776" y="1160" width="64" height="64" shape-rendering="auto"><circle fill="#000000" cx="1.7" cy="1.7" r="1.7"/></svg><svg viewBox="0 0 3.4 3.4" x="840" y="1160" width="64" height="64" shape-rendering="auto"><circle fill="#000000" cx="1.7" cy="1.7" r="1.7"/></svg><svg viewBox="0 0 3.4 3.4" x="968" y="1160" width="64" height="64" shape-rendering="auto"><circle fill="#000000" cx="1.7" cy="1.7" r="1.7"/></svg><svg viewBox="0 0 3.4 3.4" x="1288" y="1160" width="64" height="64" shape-rendering="auto"><circle fill="#000000" cx="1.7" cy="1.7" r="1.7"/></svg><svg viewBox="0 0 3.4 3.4" x="1672" y="1160" width="64" height="64" shape-rendering="auto"><circle fill="#000000" cx="1.7" cy="1.7" r="1.7"/></svg><svg viewBox="0 0 3.4 3.4" x="1736" y="1160" width="64" height="64" shape-rendering="auto"><circle fill="#000000" cx="1.7" cy="1.7" r="1.7"/></svg><svg viewBox="0 0 3.4 3.4" x="200" y="1224" width="64" height="64" shape-rendering="auto"><circle fill="#000000" cx="1.7" cy="1.7" r="1.7"/></svg><svg viewBox="0 0 3.4 3.4" x="328" y="1224" width="64" height="64" shape-rendering="auto"><circle fill="#000000" cx="1.7" cy="1.7" r="1.7"/></svg><svg viewBox="0 0 3.4 3.4" x="456" y="1224" width="64" height="64" shape-rendering="auto"><circle fill="#000000" cx="1.7" cy="1.7" r="1.7"/></svg><svg viewBox="0 0 3.4 3.4" x="584" y="1224" width="64" height="64" shape-rendering="auto"><circle fill="#000000" cx="1.7" cy="1.7" r="1.7"/></svg><svg viewBox="0 0 3.4 3.4" x="648" y="1224" width="64" height="64" shape-rendering="auto"><circle fill="#000000" cx="1.7" cy="1.7" r="1.7"/></svg><svg viewBox="0 0 3.4 3.4" x="776" y="1224" width="64" height="64" shape-rendering="auto"><circle fill="#000000" cx="1.7" cy="1.7" r="1.7"/></svg><svg viewBox="0 0 3.4 3.4" x="840" y="1224" width="64" height="64" shape-rendering="auto"><circle fill="#000000" cx="1.7" cy="1.7" r="1.7"/></svg><svg viewBox="0 0 3.4 3.4" x="968" y="1224" width="64" height="64" shape-rendering="auto"><circle fill="#000000" cx="1.7" cy="1.7" r="1.7"/></svg><svg viewBox="0 0 3.4 3.4" x="1160" y="1224" width="64" height="64" shape-rendering="auto"><circle fill="#000000" cx="1.7" cy="1.7" r="1.7"/></svg><svg viewBox="0 0 3.4 3.4" x="1224" y="1224" width="64" height="64" shape-rendering="auto"><circle fill="#000000" cx="1.7" cy="1.7" r="1.7"/></svg><svg viewBox="0 0 3.4 3.4" x="1288" y="1224" width="64" height="64" shape-rendering="auto"><circle fill="#000000" cx="1.7" cy="1.7" r="1.7"/></svg><svg viewBox="0 0 3.4 3.4" x="1352" y="1224" width="64" height="64" shape-rendering="auto"><circle fill="#000000" cx="1.7" cy="1.7" r="1.7"/></svg><svg viewBox="0 0 3.4 3.4" x="1416" y="1224" width="64" height="64" shape-rendering="auto"><circle fill="#000000" cx="1.7" cy="1.7" r="1.7"/></svg><svg viewBox="0 0 3.4 3.4" x="1480" y="1224" width="64" height="64" shape-rendering="auto"><circle fill="#000000" cx="1.7" cy="1.7" r="1.7"/></svg><svg viewBox="0 0 3.4 3.4" x="1544" y="1224" width="64" height="64" shape-rendering="auto"><circle fill="#000000" cx="1.7" cy="1.7" r="1.7"/></svg><svg viewBox="0 0 3.4 3.4" x="1736" y="1224" width="64" height="64" shape-rendering="auto"><circle fill="#000000" cx="1.7" cy="1.7" r="1.7"/></svg><svg viewBox="0 0 3.4 3.4" x="712" y="1288" width="64" height="64" shape-rendering="auto"><circle fill="#000000" cx="1.7" cy="1.7" r="1.7"/></svg><svg viewBox="0 0 3.4 3.4" x="776" y="1288" width="64" height="64" shape-rendering="auto"><circle fill="#000000" cx="1.7" cy="1.7" r="1.7"/></svg><svg viewBox="0 0 3.4 3.4" x="1096" y="1288" width="64" height="64" shape-rendering="auto"><circle fill="#000000" cx="1.7" cy="1.7" r="1.7"/></svg><svg viewBox="0 0 3.4 3.4" x="1224" y="1288" width="64" height="64" shape-rendering="auto"><circle fill="#000000" cx="1.7" cy="1.7" r="1.7"/></svg><svg viewBox="0 0 3.4 3.4" x="1480" y="1288" width="64" height="64" shape-rendering="auto"><circle fill="#000000" cx="1.7" cy="1.7" r="1.7"/></svg><svg viewBox="0 0 3.4 3.4" x="1736" y="1288" width="64" height="64" shape-rendering="auto"><circle fill="#000000" cx="1.7" cy="1.7" r="1.7"/></svg><svg viewBox="0 0 3.4 3.4" x="712" y="1352" width="64" height="64" shape-rendering="auto"><circle fill="#000000" cx="1.7" cy="1.7" r="1.7"/></svg><svg viewBox="0 0 3.4 3.4" x="904" y="1352" width="64" height="64" shape-rendering="auto"><circle fill="#000000" cx="1.7" cy="1.7" r="1.7"/></svg><svg viewBox="0 0 3.4 3.4" x="968" y="1352" width="64" height="64" shape-rendering="auto"><circle fill="#000000" cx="1.7" cy="1.7" r="1.7"/></svg><svg viewBox="0 0 3.4 3.4" x="1032" y="1352" width="64" height="64" shape-rendering="auto"><circle fill="#000000" cx="1.7" cy="1.7" r="1.7"/></svg><svg viewBox="0 0 3.4 3.4" x="1096" y="1352" width="64" height="64" shape-rendering="auto"><circle fill="#000000" cx="1.7" cy="1.7" r="1.7"/></svg><svg viewBox="0 0 3.4 3.4" x="1224" y="1352" width="64" height="64" shape-rendering="auto"><circle fill="#000000" cx="1.7" cy="1.7" r="1.7"/></svg><svg viewBox="0 0 3.4 3.4" x="1352" y="1352" width="64" height="64" shape-rendering="auto"><circle fill="#000000" cx="1.7" cy="1.7" r="1.7"/></svg><svg viewBox="0 0 3.4 3.4" x="1480" y="1352" width="64" height="64" shape-rendering="auto"><circle fill="#000000" cx="1.7" cy="1.7" r="1.7"/></svg><svg viewBox="0 0 3.4 3.4" x="1608" y="1352" width="64" height="64" shape-rendering="auto"><circle fill="#000000" cx="1.7" cy="1.7" r="1.7"/></svg><svg viewBox="0 0 3.4 3.4" x="1672" y="1352" width="64" height="64" shape-rendering="auto"><circle fill="#000000" cx="1.7" cy="1.7" r="1.7"/></svg><svg viewBox="0 0 3.4 3.4" x="1736" y="1352" width="64" height="64" shape-rendering="auto"><circle fill="#000000" cx="1.7" cy="1.7" r="1.7"/></svg><svg viewBox="0 0 3.4 3.4" x="776" y="1416" width="64" height="64" shape-rendering="auto"><circle fill="#000000" cx="1.7" cy="1.7" r="1.7"/></svg><svg viewBox="0 0 3.4 3.4" x="840" y="1416" width="64" height="64" shape-rendering="auto"><circle fill="#000000" cx="1.7" cy="1.7" r="1.7"/></svg><svg viewBox="0 0 3.4 3.4" x="904" y="1416" width="64" height="64" shape-rendering="auto"><circle fill="#000000" cx="1.7" cy="1.7" r="1.7"/></svg><svg viewBox="0 0 3.4 3.4" x="1224" y="1416" width="64" height="64" shape-rendering="auto"><circle fill="#000000" cx="1.7" cy="1.7" r="1.7"/></svg><svg viewBox="0 0 3.4 3.4" x="1480" y="1416" width="64" height="64" shape-rendering="auto"><circle fill="#000000" cx="1.7" cy="1.7" r="1.7"/></svg><svg viewBox="0 0 3.4 3.4" x="1544" y="1416" width="64" height="64" shape-rendering="auto"><circle fill="#000000" cx="1.7" cy="1.7" r="1.7"/></svg><svg viewBox="0 0 3.4 3.4" x="712" y="1480" width="64" height="64" shape-rendering="auto"><circle fill="#000000" cx="1.7" cy="1.7" r="1.7"/></svg><svg viewBox="0 0 3.4 3.4" x="840" y="1480" width="64" height="64" shape-rendering="auto"><circle fill="#000000" cx="1.7" cy="1.7" r="1.7"/></svg><svg viewBox="0 0 3.4 3.4" x="904" y="1480" width="64" height="64" shape-rendering="auto"><circle fill="#000000" cx="1.7" cy="1.7" r="1.7"/></svg><svg viewBox="0 0 3.4 3.4" x="968" y="1480" width="64" height="64" shape-rendering="auto"><circle fill="#000000" cx="1.7" cy="1.7" r="1.7"/></svg><svg viewBox="0 0 3.4 3.4" x="1032" y="1480" width="64" height="64" shape-rendering="auto"><circle fill="#000000" cx="1.7" cy="1.7" r="1.7"/></svg><svg viewBox="0 0 3.4 3.4" x="1096" y="1480" width="64" height="64" shape-rendering="auto"><circle fill="#000000" cx="1.7" cy="1.7" r="1.7"/></svg><svg viewBox="0 0 3.4 3.4" x="1224" y="1480" width="64" height="64" shape-rendering="auto"><circle fill="#000000" cx="1.7" cy="1.7" r="1.7"/></svg><svg viewBox="0 0 3.4 3.4" x="1288" y="1480" width="64" height="64" shape-rendering="auto"><circle fill="#000000" cx="1.7" cy="1.7" r="1.7"/></svg><svg viewBox="0 0 3.4 3.4" x="1352" y="1480" width="64" height="64" shape-rendering="auto"><circle fill="#000000" cx="1.7" cy="1.7" r="1.7"/></svg><svg viewBox="0 0 3.4 3.4" x="1416" y="1480" width="64" height="64" shape-rendering="auto"><circle fill="#000000" cx="1.7" cy="1.7" r="1.7"/></svg><svg viewBox="0 0 3.4 3.4" x="1480" y="1480" width="64" height="64" shape-rendering="auto"><circle fill="#000000" cx="1.7" cy="1.7" r="1.7"/></svg><svg viewBox="0 0 3.4 3.4" x="1544" y="1480" width="64" height="64" shape-rendering="auto"><circle fill="#000000" cx="1.7" cy="1.7" r="1.7"/></svg><svg viewBox="0 0 3.4 3.4" x="712" y="1544" width="64" height="64" shape-rendering="auto"><circle fill="#000000" cx="1.7" cy="1.7" r="1.7"/></svg><svg viewBox="0 0 3.4 3.4" x="776" y="1544" width="64" height="64" shape-rendering="auto"><circle fill="#000000" cx="1.7" cy="1.7" r="1.7"/></svg><svg viewBox="0 0 3.4 3.4" x="840" y="1544" width="64" height="64" shape-rendering="auto"><circle fill="#000000" cx="1.7" cy="1.7" r="1.7"/></svg><svg viewBox="0 0 3.4 3.4" x="968" y="1544" width="64" height="64" shape-rendering="auto"><circle fill="#000000" cx="1.7" cy="1.7" r="1.7"/></svg><svg viewBox="0 0 3.4 3.4" x="1096" y="1544" width="64" height="64" shape-rendering="auto"><circle fill="#000000" cx="1.7" cy="1.7" r="1.7"/></svg><svg viewBox="0 0 3.4 3.4" x="1160" y="1544" width="64" height="64" shape-rendering="auto"><circle fill="#000000" cx="1.7" cy="1.7" r="1.7"/></svg><svg viewBox="0 0 3.4 3.4" x="1224" y="1544" width="64" height="64" shape-rendering="auto"><circle fill="#000000" cx="1.7" cy="1.7" r="1.7"/></svg><svg viewBox="0 0 3.4 3.4" x="1352" y="1544" width="64" height="64" shape-rendering="auto"><circle fill="#000000" cx="1.7" cy="1.7" r="1.7"/></svg><svg viewBox="0 0 3.4 3.4" x="1480" y="1544" width="64" height="64" shape-rendering="auto"><circle fill="#000000" cx="1.7" cy="1.7" r="1.7"/></svg><svg viewBox="0 0 3.4 3.4" x="1672" y="1544" width="64" height="64" shape-rendering="auto"><circle fill="#000000" cx="1.7" cy="1.7" r="1.7"/></svg><svg viewBox="0 0 3.4 3.4" x="1736" y="1544" width="64" height="64" shape-rendering="auto"><circle fill="#000000" cx="1.7" cy="1.7" r="1.7"/></svg><svg viewBox="0 0 3.4 3.4" x="712" y="1608" width="64" height="64" shape-rendering="auto"><circle fill="#000000" cx="1.7" cy="1.7" r="1.7"/></svg><svg viewBox="0 0 3.4 3.4" x="776" y="1608" width="64" height="64" shape-rendering="auto"><circle fill="#000000" cx="1.7" cy="1.7" r="1.7"/></svg><svg viewBox="0 0 3.4 3.4" x="968" y="1608" width="64" height="64" shape-rendering="auto"><circle fill="#000000" cx="1.7" cy="1.7" r="1.7"/></svg><svg viewBox="0 0 3.4 3.4" x="1096" y="1608" width="64" height="64" shape-rendering="auto"><circle fill="#000000" cx="1.7" cy="1.7" r="1.7"/></svg><svg viewBox="0 0 3.4 3.4" x="1480" y="1608" width="64" height="64" shape-rendering="auto"><circle fill="#000000" cx="1.7" cy="1.7" r="1.7"/></svg><svg viewBox="0 0 3.4 3.4" x="1608" y="1608" width="64" height="64" shape-rendering="auto"><circle fill="#000000" cx="1.7" cy="1.7" r="1.7"/></svg><svg viewBox="0 0 3.4 3.4" x="1736" y="1608" width="64" height="64" shape-rendering="auto"><circle fill="#000000" cx="1.7" cy="1.7" r="1.7"/></svg><svg viewBox="0 0 3.4 3.4" x="712" y="1672" width="64" height="64" shape-rendering="auto"><circle fill="#000000" cx="1.7" cy="1.7" r="1.7"/></svg><svg viewBox="0 0 3.4 3.4" x="776" y="1672" width="64" height="64" shape-rendering="auto"><circle fill="#000000" cx="1.7" cy="1.7" r="1.7"/></svg><svg viewBox="0 0 3.4 3.4" x="968" y="1672" width="64" height="64" shape-rendering="auto"><circle fill="#000000" cx="1.7" cy="1.7" r="1.7"/></svg><svg viewBox="0 0 3.4 3.4" x="1096" y="1672" width="64" height="64" shape-rendering="auto"><circle fill="#000000" cx="1.7" cy="1.7" r="1.7"/></svg><svg viewBox="0 0 3.4 3.4" x="1224" y="1672" width="64" height="64" shape-rendering="auto"><circle fill="#000000" cx="1.7" cy="1.7" r="1.7"/></svg><svg viewBox="0 0 3.4 3.4" x="1288" y="1672" width="64" height="64" shape-rendering="auto"><circle fill="#000000" cx="1.7" cy="1.7" r="1.7"/></svg><svg viewBox="0 0 3.4 3.4" x="1352" y="1672" width="64" height="64" shape-rendering="auto"><circle fill="#000000" cx="1.7" cy="1.7" r="1.7"/></svg><svg viewBox="0 0 3.4 3.4" x="1416" y="1672" width="64" height="64" shape-rendering="auto"><circle fill="#000000" cx="1.7" cy="1.7" r="1.7"/></svg><svg viewBox="0 0 3.4 3.4" x="1480" y="1672" width="64" height="64" shape-rendering="auto"><circle fill="#000000" cx="1.7" cy="1.7" r="1.7"/></svg><svg viewBox="0 0 3.4 3.4" x="1544" y="1672" width="64" height="64" shape-rendering="auto"><circle fill="#000000" cx="1.7" cy="1.7" r="1.7"/></svg><svg viewBox="0 0 3.4 3.4" x="1672" y="1672" width="64" height="64" shape-rendering="auto"><circle fill="#000000" cx="1.7" cy="1.7" r="1.7"/></svg><svg viewBox="0 0 3.4 3.4" x="712" y="1736" width="64" height="64" shape-rendering="auto"><circle fill="#000000" cx="1.7" cy="1.7" r="1.7"/></svg><svg viewBox="0 0 3.4 3.4" x="840" y="1736" width="64" height="64" shape-rendering="auto"><circle fill="#000000" cx="1.7" cy="1.7" r="1.7"/></svg><svg viewBox="0 0 3.4 3.4" x="968" y="1736" width="64" height="64" shape-rendering="auto"><circle fill="#000000" cx="1.7" cy="1.7" r="1.7"/></svg><svg viewBox="0 0 3.4 3.4" x="1160" y="1736" width="64" height="64" shape-rendering="auto"><circle fill="#000000" cx="1.7" cy="1.7" r="1.7"/></svg><svg viewBox="0 0 3.4 3.4" x="1608" y="1736" width="64" height="64" shape-rendering="auto"><circle fill="#000000" cx="1.7" cy="1.7" r="1.7"/></svg><svg viewBox="0 0 3.4 3.4" x="1672" y="1736" width="64" height="64" shape-rendering="auto"><circle fill="#000000" cx="1.7" cy="1.7" r="1.7"/></svg><svg viewBox="0 0 3.4 3.4" x="1736" y="1736" width="64" height="64" shape-rendering="auto"><circle fill="#000000" cx="1.7" cy="1.7" r="1.7"/></svg><svg version="1.1" id="Ebene_1" x="200" y="200" width="448" height="448" viewBox="0 0 699.988 699.988" enable-background="new 0 0 699.988 699.988" xml:space="preserve" shape-rendering="auto">
<path fill="#000000" d="M488.367,0H211.621C94.746,0,0,94.746,0,211.621v276.745c0,116.876,94.746,211.622,211.621,211.622h276.746  c116.875,0,211.621-94.746,211.621-211.622V211.621C699.988,94.746,605.242,0,488.367,0z M599.99,448.832  c0,83.482-67.676,151.158-151.158,151.158H251.156c-83.482,0-151.158-67.676-151.158-151.158V251.156  c0-83.482,67.676-151.158,151.158-151.158h197.676c83.482,0,151.158,67.676,151.158,151.158V448.832z"/>
</svg>
<svg version="1.1" id="Ebene_1" x="200" y="200" width="448" height="448" viewBox="0 0 699.988 699.988" enable-background="new 0 0 699.988 699.988" xml:space="preserve" shape-rendering="auto">
<path fill="#000000" d="M499.991,409.296c0,50.091-40.604,90.694-90.693,90.694H290.691c-50.089,0-90.694-40.604-90.694-90.694  V290.692c0-50.09,40.605-90.694,90.694-90.694h118.605c50.089,0,90.693,40.604,90.693,90.694L499.991,409.296L499.991,409.296z"/>
</svg>
<svg version="1.1" id="Ebene_1" x="1352" y="200" width="448" height="448" viewBox="0 0 699.988 699.988" enable-background="new 0 0 699.988 699.988" xml:space="preserve" shape-rendering="auto">
<path fill="#000000" d="M488.367,0H211.621C94.746,0,0,94.746,0,211.621v276.745c0,116.876,94.746,211.622,211.621,211.622h276.746  c116.875,0,211.621-94.746,211.621-211.622V211.621C699.988,94.746,605.242,0,488.367,0z M599.99,448.832  c0,83.482-67.676,151.158-151.158,151.158H251.156c-83.482,0-151.158-67.676-151.158-151.158V251.156  c0-83.482,67.676-151.158,151.158-151.158h197.676c83.482,0,151.158,67.676,151.158,151.158V448.832z"/>
</svg>
<svg version="1.1" id="Ebene_1" x="1352" y="200" width="448" height="448" viewBox="0 0 699.988 699.988" enable-background="new 0 0 699.988 699.988" xml:space="preserve" shape-rendering="auto">
<path fill="#000000" d="M499.991,409.296c0,50.091-40.604,90.694-90.693,90.694H290.691c-50.089,0-90.694-40.604-90.694-90.694  V290.692c0-50.09,40.605-90.694,90.694-90.694h118.605c50.089,0,90.693,40.604,90.693,90.694L499.991,409.296L499.991,409.296z"/>
</svg>
<svg version="1.1" id="Ebene_1" x="200" y="1352" width="448" height="448" viewBox="0 0 699.988 699.988" enable-background="new 0 0 699.988 699.988" xml:space="preserve" shape-rendering="auto">
<path fill="#000000" d="M488.367,0H211.621C94.746,0,0,94.746,0,211.621v276.745c0,116.876,94.746,211.622,211.621,211.622h276.746  c116.875,0,211.621-94.746,211.621-211.622V211.621C699.988,94.746,605.242,0,488.367,0z M599.99,448.832  c0,83.482-67.676,151.158-151.158,151.158H251.156c-83.482,0-151.158-67.676-151.158-151.158V251.156  c0-83.482,67.676-151.158,151.158-151.158h197.676c83.482,0,151.158,67.676,151.158,151.158V448.832z"/>
</svg>
<svg version="1.1" id="Ebene_1" x="200" y="1352" width="448" height="448" viewBox="0 0 699.988 699.988" enable-background="new 0 0 699.988 699.988" xml:space="preserve" shape-rendering="auto">
<path fill="#000000" d="M499.991,409.296c0,50.091-40.604,90.694-90.693,90.694H290.691c-50.089,0-90.694-40.604-90.694-90.694  V290.692c0-50.09,40.605-90.694,90.694-90.694h118.605c50.089,0,90.693,40.604,90.693,90.694L499.991,409.296L499.991,409.296z"/>
</svg>
</svg>

</svg>
